<svg width="194" height="50" viewBox="0 0 194 50" fill="none" xmlns="http://www.w3.org/2000/svg">
<path d="M78.55 16.45V28.4C78.55 30.25 78.025 31.675 76.975 32.675C75.9417 33.675 74.5417 34.175 72.775 34.175C70.925 34.175 69.4417 33.65 68.325 32.6C67.2083 31.55 66.65 30.0583 66.65 28.125H70.9C70.9 28.8583 71.05 29.4167 71.35 29.8C71.65 30.1667 72.0833 30.35 72.65 30.35C73.1667 30.35 73.5667 30.1833 73.85 29.85C74.1333 29.5167 74.275 29.0333 74.275 28.4V16.45H78.55ZM90.8531 34.2C89.4865 34.2 88.2531 33.9083 87.1531 33.325C86.0698 32.7417 85.2115 31.9083 84.5781 30.825C83.9615 29.7417 83.6531 28.475 83.6531 27.025C83.6531 25.5917 83.9698 24.3333 84.6031 23.25C85.2365 22.15 86.1031 21.3083 87.2031 20.725C88.3031 20.1417 89.5365 19.85 90.9031 19.85C92.2698 19.85 93.5031 20.1417 94.6031 20.725C95.7031 21.3083 96.5698 22.15 97.2031 23.25C97.8365 24.3333 98.1531 25.5917 98.1531 27.025C98.1531 28.4583 97.8281 29.725 97.1781 30.825C96.5448 31.9083 95.6698 32.7417 94.5531 33.325C93.4531 33.9083 92.2198 34.2 90.8531 34.2ZM90.8531 30.5C91.6698 30.5 92.3615 30.2 92.9281 29.6C93.5115 29 93.8031 28.1417 93.8031 27.025C93.8031 25.9083 93.5198 25.05 92.9531 24.45C92.4031 23.85 91.7198 23.55 90.9031 23.55C90.0698 23.55 89.3781 23.85 88.8281 24.45C88.2781 25.0333 88.0031 25.8917 88.0031 27.025C88.0031 28.1417 88.2698 29 88.8031 29.6C89.3531 30.2 90.0365 30.5 90.8531 30.5ZM107.196 22.025C107.596 21.375 108.171 20.85 108.921 20.45C109.671 20.05 110.529 19.85 111.496 19.85C112.646 19.85 113.688 20.1417 114.621 20.725C115.554 21.3083 116.288 22.1417 116.821 23.225C117.371 24.3083 117.646 25.5667 117.646 27C117.646 28.4333 117.371 29.7 116.821 30.8C116.288 31.8833 115.554 32.725 114.621 33.325C113.688 33.9083 112.646 34.2 111.496 34.2C110.513 34.2 109.654 34.0083 108.921 33.625C108.188 33.225 107.613 32.7 107.196 32.05V34H102.921V15.5H107.196V22.025ZM113.296 27C113.296 25.9333 112.996 25.1 112.396 24.5C111.813 23.8833 111.088 23.575 110.221 23.575C109.371 23.575 108.646 23.8833 108.046 24.5C107.463 25.1167 107.171 25.9583 107.171 27.025C107.171 28.0917 107.463 28.9333 108.046 29.55C108.646 30.1667 109.371 30.475 110.221 30.475C111.071 30.475 111.796 30.1667 112.396 29.55C112.996 28.9167 113.296 28.0667 113.296 27ZM135.014 16.45V19.875H130.364V34H126.089V19.875H121.439V16.45H135.014ZM143.934 22.375C144.434 21.6083 145.059 21.0083 145.809 20.575C146.559 20.125 147.393 19.9 148.309 19.9V24.425H147.134C146.068 24.425 145.268 24.6583 144.734 25.125C144.201 25.575 143.934 26.375 143.934 27.525V34H139.659V20.05H143.934V22.375ZM152.003 27C152.003 25.5667 152.269 24.3083 152.803 23.225C153.353 22.1417 154.094 21.3083 155.028 20.725C155.961 20.1417 157.003 19.85 158.153 19.85C159.136 19.85 159.994 20.05 160.728 20.45C161.478 20.85 162.053 21.375 162.453 22.025V20.05H166.728V34H162.453V32.025C162.036 32.675 161.453 33.2 160.703 33.6C159.969 34 159.111 34.2 158.128 34.2C156.994 34.2 155.961 33.9083 155.028 33.325C154.094 32.725 153.353 31.8833 152.803 30.8C152.269 29.7 152.003 28.4333 152.003 27ZM162.453 27.025C162.453 25.9583 162.153 25.1167 161.553 24.5C160.969 23.8833 160.253 23.575 159.403 23.575C158.553 23.575 157.828 23.8833 157.228 24.5C156.644 25.1 156.353 25.9333 156.353 27C156.353 28.0667 156.644 28.9167 157.228 29.55C157.828 30.1667 158.553 30.475 159.403 30.475C160.253 30.475 160.969 30.1667 161.553 29.55C162.153 28.9333 162.453 28.0917 162.453 27.025ZM174.471 18.6C173.721 18.6 173.104 18.3833 172.621 17.95C172.154 17.5 171.921 16.95 171.921 16.3C171.921 15.6333 172.154 15.0833 172.621 14.65C173.104 14.2 173.721 13.975 174.471 13.975C175.204 13.975 175.804 14.2 176.271 14.65C176.754 15.0833 176.996 15.6333 176.996 16.3C176.996 16.95 176.754 17.5 176.271 17.95C175.804 18.3833 175.204 18.6 174.471 18.6ZM176.596 20.05V34H172.321V20.05H176.596ZM186.469 15.5V34H182.194V15.5H186.469Z" fill="#29D14E"/>
<rect width="50" height="50" rx="10" fill="#29D14E"/>
<path d="M26.043 29.2695V9.5625H31.8828V29.2695C31.8828 31.1706 31.4661 32.8047 30.6328 34.1719C29.7995 35.526 28.6602 36.5677 27.2148 37.2969C25.7826 38.026 24.168 38.3906 22.3711 38.3906C20.5091 38.3906 18.862 38.0781 17.4297 37.4531C15.9974 36.8281 14.8711 35.8711 14.0508 34.582C13.2305 33.2799 12.8203 31.6328 12.8203 29.6406H18.6992C18.6992 30.6823 18.8424 31.5091 19.1289 32.1211C19.4284 32.7331 19.8516 33.1693 20.3984 33.4297C20.9453 33.6901 21.6029 33.8203 22.3711 33.8203C23.1133 33.8203 23.7578 33.6445 24.3047 33.293C24.8516 32.9414 25.2747 32.4271 25.5742 31.75C25.8867 31.0729 26.043 30.2461 26.043 29.2695Z" fill="white"/>
</svg>
