<svg width="249" height="50" viewBox="0 0 249 50" fill="none" xmlns="http://www.w3.org/2000/svg">
<path d="M82.736 19.44V34.384C82.736 36.9227 82.0427 38.864 80.656 40.208C79.2907 41.552 77.4027 42.224 74.992 42.224C72.432 42.224 70.384 41.5093 68.848 40.08C67.3333 38.6507 66.576 36.592 66.576 33.904H72.784C72.8053 35.6747 73.456 36.56 74.736 36.56C75.888 36.56 76.464 35.8347 76.464 34.384V19.44H82.736ZM98.0315 42.224C96.2395 42.224 94.6288 41.8507 93.1995 41.104C91.7915 40.3573 90.6822 39.2907 89.8715 37.904C89.0608 36.5173 88.6555 34.8853 88.6555 33.008C88.6555 31.152 89.0608 29.5307 89.8715 28.144C90.7035 26.7573 91.8235 25.6907 93.2315 24.944C94.6608 24.1973 96.2715 23.824 98.0635 23.824C99.8555 23.824 101.456 24.1973 102.864 24.944C104.293 25.6907 105.413 26.7573 106.224 28.144C107.056 29.5307 107.472 31.152 107.472 33.008C107.472 34.864 107.056 36.496 106.224 37.904C105.413 39.2907 104.293 40.3573 102.864 41.104C101.434 41.8507 99.8235 42.224 98.0315 42.224ZM98.0315 36.784C98.9062 36.784 99.6315 36.464 100.208 35.824C100.805 35.1627 101.104 34.224 101.104 33.008C101.104 31.792 100.805 30.864 100.208 30.224C99.6315 29.584 98.9168 29.264 98.0635 29.264C97.2102 29.264 96.4955 29.584 95.9195 30.224C95.3435 30.864 95.0555 31.792 95.0555 33.008C95.0555 34.2453 95.3328 35.184 95.8875 35.824C96.4422 36.464 97.1568 36.784 98.0315 36.784ZM119.495 26.544C119.986 25.6907 120.679 25.0293 121.575 24.56C122.471 24.0693 123.527 23.824 124.743 23.824C126.173 23.824 127.463 24.1973 128.615 24.944C129.789 25.6907 130.706 26.7573 131.367 28.144C132.05 29.5307 132.391 31.152 132.391 33.008C132.391 34.864 132.05 36.496 131.367 37.904C130.706 39.2907 129.789 40.3573 128.615 41.104C127.463 41.8507 126.173 42.224 124.743 42.224C123.527 42.224 122.471 41.9893 121.575 41.52C120.679 41.0293 119.986 40.3573 119.495 39.504V42H113.223V18.32H119.495V26.544ZM126.023 33.008C126.023 31.8347 125.703 30.928 125.063 30.288C124.445 29.6267 123.677 29.296 122.759 29.296C121.842 29.296 121.063 29.6267 120.423 30.288C119.805 30.9493 119.495 31.856 119.495 33.008C119.495 34.1813 119.805 35.0987 120.423 35.76C121.063 36.4213 121.842 36.752 122.759 36.752C123.677 36.752 124.445 36.4213 125.063 35.76C125.703 35.0773 126.023 34.16 126.023 33.008ZM155.165 19.44V24.432H149.149V42H142.877V24.432H136.925V19.44H155.165ZM166.958 27.216C167.662 26.192 168.515 25.3813 169.518 24.784C170.52 24.1867 171.598 23.888 172.75 23.888V30.576H170.99C169.624 30.576 168.611 30.8427 167.95 31.376C167.288 31.9093 166.958 32.8373 166.958 34.16V42H160.686V24.048H166.958V27.216ZM177.174 33.008C177.174 31.152 177.505 29.5307 178.166 28.144C178.849 26.7573 179.766 25.6907 180.918 24.944C182.092 24.1973 183.393 23.824 184.822 23.824C186.06 23.824 187.126 24.0693 188.022 24.56C188.918 25.0507 189.612 25.712 190.102 26.544V24.048H196.374V42H190.102V39.504C189.612 40.336 188.908 40.9973 187.99 41.488C187.094 41.9787 186.038 42.224 184.822 42.224C183.393 42.224 182.092 41.8507 180.918 41.104C179.766 40.3573 178.849 39.2907 178.166 37.904C177.505 36.496 177.174 34.864 177.174 33.008ZM190.102 33.008C190.102 31.856 189.782 30.9493 189.142 30.288C188.524 29.6267 187.756 29.296 186.838 29.296C185.9 29.296 185.121 29.6267 184.502 30.288C183.884 30.928 183.574 31.8347 183.574 33.008C183.574 34.16 183.884 35.0773 184.502 35.76C185.121 36.4213 185.9 36.752 186.838 36.752C187.756 36.752 188.524 36.4213 189.142 35.76C189.782 35.0987 190.102 34.1813 190.102 33.008ZM206.316 22.384C205.207 22.384 204.311 22.0853 203.628 21.488C202.967 20.8693 202.636 20.1013 202.636 19.184C202.636 18.2453 202.967 17.4667 203.628 16.848C204.311 16.2293 205.207 15.92 206.316 15.92C207.404 15.92 208.279 16.2293 208.94 16.848C209.623 17.4667 209.964 18.2453 209.964 19.184C209.964 20.1013 209.623 20.8693 208.94 21.488C208.279 22.0853 207.404 22.384 206.316 22.384ZM209.42 24.048V42H203.148V24.048H209.42ZM222.464 18.32V42H216.192V18.32H222.464Z" fill="#22C55E"/>
<rect width="50" height="50" rx="10" fill="#22C55E"/>
<path d="M26.0039 9.5625H31.8633V29.25C31.8633 31.0599 31.4596 32.6615 30.6523 34.0547C29.8581 35.4349 28.7318 36.5026 27.2734 37.2578C25.8151 38.013 24.168 38.3906 22.332 38.3906C19.3242 38.3906 16.9805 37.6289 15.3008 36.1055C13.6211 34.569 12.7812 32.401 12.7812 29.6016H18.6797C18.6797 30.9948 18.9727 32.0234 19.5586 32.6875C20.1445 33.3516 21.069 33.6836 22.332 33.6836C23.4518 33.6836 24.3438 33.2995 25.0078 32.5312C25.6719 31.763 26.0039 30.6693 26.0039 29.25V9.5625Z" fill="white"/>
</svg>
